HIERARCHY
ROOT Hips
{
	OFFSET -0.001795 -0.223333 0.028219
	CHANNELS 6 Xposition Yposition Zposition Zrotation Yrotation Xrotation 
	JOINT LeftUpLeg
	{
		OFFSET 0.069520 -0.091406 -0.006815
		CHANNELS 3 Zrotation Yrotation Xrotation
		JOINT LeftLeg
		{
			OFFSET 0.034277 -0.375199 -0.004496
			CHANNELS 3 Zrotation Yrotation Xrotation
			JOINT LeftFoot
			{
				OFFSET -0.013596 -0.397961 -0.043693
				CHANNELS 3 Zrotation Yrotation Xrotation
				JOINT LeftToe
				{
					OFFSET 0.026358 -0.055791 0.119288
					CHANNELS 3 Zrotation Yrotation Xrotation
					End Site
					{
						OFFSET 0.000000 0.000000 0.000000
					}
				}
			}
		}
	}
	JOINT RightUpLeg
	{
		OFFSET -0.067670 -0.090522 -0.004320
		CHANNELS 3 Zrotation Yrotation Xrotation
		JOINT RightLeg
		{
			OFFSET -0.038290 -0.382569 -0.008850
			CHANNELS 3 Zrotation Yrotation Xrotation
			JOINT RightFoot
			{
				OFFSET 0.015774 -0.398415 -0.042312
				CHANNELS 3 Zrotation Yrotation Xrotation
				JOINT RightToe
				{
					OFFSET -0.025372 -0.048144 0.123348
					CHANNELS 3 Zrotation Yrotation Xrotation
					End Site
					{
						OFFSET 0.000000 0.000000 0.000000
					}
				}
			}
		}
	}
	JOINT Spine
	{
		OFFSET -0.002533 0.108963 -0.026696
		CHANNELS 3 Zrotation Yrotation Xrotation
		JOINT Spine1
		{
			OFFSET 0.005487 0.135180 0.001092
			CHANNELS 3 Zrotation Yrotation Xrotation
			JOINT Spine2
			{
				OFFSET 0.001457 0.052922 0.025425
				CHANNELS 3 Zrotation Yrotation Xrotation
				JOINT Neck
				{
					OFFSET -0.002778 0.213870 -0.042857
					CHANNELS 3 Zrotation Yrotation Xrotation
					JOINT Head
					{
						OFFSET 0.005152 0.064970 0.051349
						CHANNELS 3 Zrotation Yrotation Xrotation
						End Site
						{
							OFFSET 0.000000 0.000000 0.000000
						}
					}
				}
				JOINT LeftShoulder
				{
					OFFSET 0.078845 0.121749 -0.034090
					CHANNELS 3 Zrotation Yrotation Xrotation
					JOINT LeftArm
					{
						OFFSET 0.090977 0.030469 -0.008868
						CHANNELS 3 Zrotation Yrotation Xrotation
						JOINT LeftForeArm
						{
							OFFSET 0.259612 -0.012772 -0.027456
							CHANNELS 3 Zrotation Yrotation Xrotation
							JOINT LeftHand
							{
								OFFSET 0.249234 0.008986 -0.001171
								CHANNELS 3 Zrotation Yrotation Xrotation
								End Site
								{
									OFFSET 0.000000 0.000000 0.000000
								}
							}
						}
					}
				}
				JOINT RightShoulder
				{
					OFFSET -0.081759 0.118833 -0.038615
					CHANNELS 3 Zrotation Yrotation Xrotation
					JOINT RightArm
					{
						OFFSET -0.096012 0.032551 -0.009143
						CHANNELS 3 Zrotation Yrotation Xrotation
						JOINT RightForeArm
						{
							OFFSET -0.253742 -0.013329 -0.021401
							CHANNELS 3 Zrotation Yrotation Xrotation
							JOINT RightHand
							{
								OFFSET -0.255298 0.007772 -0.005559
								CHANNELS 3 Zrotation Yrotation Xrotation
								End Site
								{
									OFFSET 0.000000 0.000000 0.000000
								}
							}
						}
					}
				}
			}
		}
	}
}
MOTION
Frames: 5
Frame Time: 0.050000
-0.015745 0.951408 -0.078642 1.307860 1.611680 12.669308 11.171762 -0.393269 -25.122608 -0.048388 -0.537692 15.366206 -6.113490 -6.228069 11.029993 0.000000 0.000000 0.000000 0.470675 2.201196 -21.894042 -5.995741 1.391122 8.489107 -2.768004 -10.332423 13.234108 0.000000 0.000000 0.000000 -2.597542 -0.042844 8.812689 -4.244722 1.930896 -0.084374 -11.336055 20.820347 6.474044 14.234903 -22.506572 16.540883 0.000000 0.000000 0.000000 45.947171 -29.685038 7.086145 26.289114 -54.842057 -25.227025 26.526069 -2.019459 -1.158365 0.000000 0.000000 0.000000 -36.822410 34.192276 0.989526 -2.974816 57.113512 1.851504 -1.456345 -9.866043 -0.025477 0.000000 0.000000 0.000000 
-0.016245 0.951338 -0.078521 0.909271 1.633821 12.871050 11.328150 -0.370595 -25.244175 -0.109742 -0.518004 15.257214 -6.309743 -6.806182 10.639582 0.000000 0.000000 0.000000 1.116730 2.314186 -22.092515 -6.080637 1.407886 8.509161 -3.498971 -11.706909 13.341497 0.000000 0.000000 0.000000 -2.919490 -0.006007 9.104715 -4.573650 2.077871 -0.134046 -11.261455 20.824051 5.700973 14.348088 -21.492698 15.018513 0.000000 0.000000 0.000000 46.028093 -28.174048 7.498928 26.937548 -53.089506 -24.562699 27.398277 -0.369842 -0.970745 0.000000 0.000000 0.000000 -36.892790 34.371780 1.111657 -5.110839 60.825897 1.096298 -7.015990 -9.605928 0.467207 0.000000 0.000000 0.000000 
-0.016579 0.951014 -0.077661 0.241216 1.156406 13.110122 11.966306 -0.217645 -25.514177 -0.169554 -0.496753 15.577045 -6.171474 -7.035707 9.904105 0.000000 0.000000 0.000000 1.631854 2.428142 -22.291851 -5.612669 1.329247 8.543631 -3.805951 -12.371929 13.457938 0.000000 0.000000 0.000000 -3.497125 0.074309 9.270411 -4.515341 2.043071 -0.766527 -11.093478 21.313826 5.325277 14.220379 -20.294160 13.537438 0.000000 0.000000 0.000000 45.877914 -26.901186 7.860348 27.169390 -50.829115 -23.348467 27.666621 0.868531 -0.846634 0.000000 0.000000 0.000000 -36.799616 34.686948 1.210889 -8.600345 65.230249 -0.567380 -14.171780 -11.299602 1.306457 0.000000 0.000000 0.000000 
-0.016804 0.950096 -0.076138 -0.398881 1.139747 13.343812 12.217884 -0.170236 -25.809287 0.179779 -0.582563 15.683527 -5.982961 -6.855903 9.637208 0.000000 0.000000 0.000000 2.189017 2.511503 -22.308485 -5.489998 1.300719 8.469629 -4.348797 -13.348366 13.248233 0.000000 0.000000 0.000000 -3.652367 0.098220 9.258894 -4.883477 2.197300 -1.225532 -10.366685 21.015703 4.757592 14.210160 -19.274277 12.239133 0.000000 0.000000 0.000000 45.681956 -26.158166 7.974179 26.013277 -48.776924 -21.276728 26.903000 2.376494 -0.570756 0.000000 0.000000 0.000000 -36.695258 35.215771 1.415451 -12.672457 70.068021 -3.280381 -21.543463 -12.632421 2.303121 0.000000 0.000000 0.000000 
-0.016813 0.949305 -0.074365 -1.105800 0.835732 13.113801 12.626916 -0.066198 -25.511873 0.805349 -0.734437 15.912629 -5.938299 -7.014628 9.259701 0.000000 0.000000 0.000000 2.751380 2.567307 -21.996027 -5.393989 1.303366 8.673957 -4.235732 -13.178345 13.151635 0.000000 0.000000 0.000000 -3.654847 0.104487 8.744638 -4.965932 2.233641 -1.373987 -9.902408 21.196200 4.266258 13.715295 -18.758379 12.394129 0.000000 0.000000 0.000000 44.986213 -26.777777 8.000332 24.870513 -47.131523 -19.660419 24.698656 4.004914 -0.200862 0.000000 0.000000 0.000000 -35.348621 36.758498 2.135156 -18.130398 73.712796 -7.675604 -25.656598 -13.355237 2.854348 0.000000 0.000000 0.000000 
